<svg xmlns="http://www.w3.org/2000/svg" width="7200" height="1000" viewBox="0 0 7200 1000"><path fill="#91b6a4" d="M0 770q600-280 1160-20t1090-20 1150-50 1070 110 1060-90 1270 60v240H0Z"/><path fill="#527d72" d="M0 810q650-190 1280 0t1390-30 1490 30 1380-30 1460 50v170H0Z"/><path fill="#365e5c" d="M0 860q1200-80 2450 15t2250-15 2300 20v120H0Z"/><g transform="translate(70 720)scale(.71615)"><rect width="86" height="85" x="-43" y="-85" fill="#e8ba99" rx="4"/><path fill="#465f62" d="m-54-82 54-48 54 48Z"/><path fill="none" stroke="#e8b08b" stroke-width="5" d="m-49-87 49-43 49 43"/><rect width="24" height="36" x="-12" y="-36" fill="#475f63" rx="12"/><g fill="#ffedba"><rect width="17" height="23" x="-31" y="-65" rx="3"/><rect width="17" height="23" x="15" y="-65" rx="3"/></g><path stroke="#7d9290" stroke-width="2" d="M-30-54h15m38-11v22"/><path fill="#465f62" d="M23-122h12v33H23z"/></g><g transform="translate(178 743.641)scale(.64957)"><rect width="86" height="85" x="-43" y="-85" fill="#e9d7b1" rx="4"/><path fill="#465f62" d="m-54-82 54-48 54 48Z"/><path fill="none" stroke="#e8b08b" stroke-width="5" d="m-49-87 49-43 49 43"/><rect width="24" height="36" x="-12" y="-36" fill="#475f63" rx="12"/><g fill="#ffedba"><rect width="17" height="23" x="-31" y="-65" rx="3"/><rect width="17" height="23" x="15" y="-65" rx="3"/></g><path stroke="#7d9290" stroke-width="2" d="M-30-54h15m38-11v22"/><path fill="#465f62" d="M23-122h12v33H23z"/></g><g transform="translate(286 685.134)scale(.79896)"><rect width="86" height="85" x="-43" y="-85" fill="#cbceaf" rx="4"/><path fill="#465f62" d="m-54-82 54-48 54 48Z"/><path fill="none" stroke="#e8b08b" stroke-width="5" d="m-49-87 49-43 49 43"/><rect width="24" height="36" x="-12" y="-36" fill="#475f63" rx="12"/><g fill="#ffedba"><rect width="17" height="23" x="-31" y="-65" rx="3"/><rect width="17" height="23" x="15" y="-65" rx="3"/></g><path stroke="#7d9290" stroke-width="2" d="M-30-54h15m38-11v22"/><path fill="#465f62" d="M23-122h12v33H23z"/></g><g transform="translate(394 747.778)scale(.76465)"><rect width="86" height="85" x="-43" y="-85" fill="#e8ba99" rx="4"/><path fill="#465f62" d="m-54-82 54-48 54 48Z"/><path fill="none" stroke="#e8b08b" stroke-width="5" d="m-49-87 49-43 49 43"/><rect width="24" height="36" x="-12" y="-36" fill="#475f63" rx="12"/><g fill="#ffedba"><rect width="17" height="23" x="-31" y="-65" rx="3"/><rect width="17" height="23" x="15" y="-65" rx="3"/></g><path stroke="#7d9290" stroke-width="2" d="M-30-54h15m38-11v22"/><path fill="#465f62" d="M23-122h12v33H23z"/></g><g transform="translate(502 713.899)scale(.71568)"><rect width="86" height="85" x="-43" y="-85" fill="#e9d7b1" rx="4"/><path fill="#465f62" d="m-54-82 54-48 54 48Z"/><path fill="none" stroke="#e8b08b" stroke-width="5" d="m-49-87 49-43 49 43"/><rect width="24" height="36" x="-12" y="-36" fill="#475f63" rx="12"/><g fill="#ffedba"><rect width="17" height="23" x="-31" y="-65" rx="3"/><rect width="17" height="23" x="15" y="-65" rx="3"/></g><path stroke="#7d9290" stroke-width="2" d="M-30-54h15m38-11v22"/><path fill="#465f62" d="M23-122h12v33H23z"/></g><g transform="translate(610 701.22)scale(.46844)"><rect width="86" height="85" x="-43" y="-85" fill="#cbceaf" rx="4"/><path fill="#465f62" d="m-54-82 54-48 54 48Z"/><path fill="none" stroke="#e8b08b" stroke-width="5" d="m-49-87 49-43 49 43"/><rect width="24" height="36" x="-12" y="-36" fill="#475f63" rx="12"/><g fill="#ffedba"><rect width="17" height="23" x="-31" y="-65" rx="3"/><rect width="17" height="23" x="15" y="-65" rx="3"/></g><path stroke="#7d9290" stroke-width="2" d="M-30-54h15m38-11v22"/><path fill="#465f62" d="M23-122h12v33H23z"/></g><g transform="translate(718 753.798)scale(.58273)"><rect width="86" height="85" x="-43" y="-85" fill="#e8ba99" rx="4"/><path fill="#465f62" d="m-54-82 54-48 54 48Z"/><path fill="none" stroke="#e8b08b" stroke-width="5" d="m-49-87 49-43 49 43"/><rect width="24" height="36" x="-12" y="-36" fill="#475f63" rx="12"/><g fill="#ffedba"><rect width="17" height="23" x="-31" y="-65" rx="3"/><rect width="17" height="23" x="15" y="-65" rx="3"/></g><path stroke="#7d9290" stroke-width="2" d="M-30-54h15m38-11v22"/><path fill="#465f62" d="M23-122h12v33H23z"/></g><g transform="translate(826 688.935)scale(.46686)"><rect width="86" height="85" x="-43" y="-85" fill="#e9d7b1" rx="4"/><path fill="#465f62" d="m-54-82 54-48 54 48Z"/><path fill="none" stroke="#e8b08b" stroke-width="5" d="m-49-87 49-43 49 43"/><rect width="24" height="36" x="-12" y="-36" fill="#475f63" rx="12"/><g fill="#ffedba"><rect width="17" height="23" x="-31" y="-65" rx="3"/><rect width="17" height="23" x="15" y="-65" rx="3"/></g><path stroke="#7d9290" stroke-width="2" d="M-30-54h15m38-11v22"/><path fill="#465f62" d="M23-122h12v33H23z"/></g><g transform="translate(934 732.016)scale(.60392)"><rect width="86" height="85" x="-43" y="-85" fill="#cbceaf" rx="4"/><path fill="#465f62" d="m-54-82 54-48 54 48Z"/><path fill="none" stroke="#e8b08b" stroke-width="5" d="m-49-87 49-43 49 43"/><rect width="24" height="36" x="-12" y="-36" fill="#475f63" rx="12"/><g fill="#ffedba"><rect width="17" height="23" x="-31" y="-65" rx="3"/><rect width="17" height="23" x="15" y="-65" rx="3"/></g><path stroke="#7d9290" stroke-width="2" d="M-30-54h15m38-11v22"/><path fill="#465f62" d="M23-122h12v33H23z"/></g><path stroke="#486d61" stroke-width="7" d="M1042 733.344v-91"/><path fill="#456e64" d="m1011 704.344 31-87 32 87Z"/><path stroke="#486d61" stroke-width="7" d="M1150 688.305v-91"/><path fill="#6f9983" d="m1119 659.305 31-87 32 87Z"/><path stroke="#486d61" stroke-width="7" d="M1258 753.4v-91"/><path fill="#456e64" d="m1227 724.4 31-87 32 87Z"/><path stroke="#486d61" stroke-width="7" d="M1366 702.437v-91"/><path fill="#6f9983" d="m1335 673.437 31-87 32 87Z"/><path stroke="#486d61" stroke-width="7" d="M1474 712.501v-91"/><path fill="#456e64" d="m1443 683.501 31-87 32 87Z"/><path stroke="#486d61" stroke-width="7" d="M1582 748.622v-91"/><path fill="#6f9983" d="m1551 719.622 31-87 32 87Z"/><path stroke="#486d61" stroke-width="7" d="M1690 685.288v-91"/><path fill="#456e64" d="m1659 656.288 31-87 32 87Z"/><path stroke="#486d61" stroke-width="7" d="M1798 742.571v-91"/><path fill="#6f9983" d="m1767 713.571 31-87 32 87Z"/><path stroke="#486d61" stroke-width="7" d="M1906 721.424v-91"/><path fill="#456e64" d="m1875 692.424 31-87 32 87Z"/><path stroke="#486d61" stroke-width="7" d="M2014 695.328v-91"/><path fill="#6f9983" d="m1983 666.328 31-87 32 87Z"/><path stroke="#486d61" stroke-width="7" d="M2122 754.962v-91"/><path fill="#456e64" d="m2091 725.962 31-87 32 87Z"/><path stroke="#486d61" stroke-width="7" d="M2230 693.111v-91"/><path fill="#6f9983" d="m2199 664.111 31-87 32 87Z"/><path stroke="#486d61" stroke-width="7" d="M2338 724.694v-91"/><path fill="#456e64" d="m2307 695.694 31-87 32 87Z"/><path stroke="#486d61" stroke-width="7" d="M2446 739.966v-91"/><path fill="#6f9983" d="m2415 710.966 31-87 32 87Z"/><path stroke="#486d61" stroke-width="7" d="M2554 685.86v-91"/><path fill="#456e64" d="m2523 656.86 31-87 32 87Z"/><path stroke="#486d61" stroke-width="7" d="M2662 750.383v-91"/><path fill="#6f9983" d="m2631 721.383 31-87 32 87Z"/><path stroke="#486d61" stroke-width="7" d="M2770 709.332v-91"/><path fill="#456e64" d="m2739 680.332 31-87 32 87Z"/><path stroke="#486d61" stroke-width="7" d="M2878 705.35v-91"/><path fill="#6f9983" d="m2847 676.35 31-87 32 87Z"/><path stroke="#486d61" stroke-width="7" d="M2986 752.273v-91"/><path fill="#456e64" d="m2955 723.273 31-87 32 87Z"/><path stroke="#486d61" stroke-width="7" d="M3094 687.053v-91"/><path fill="#6f9983" d="m3063 658.053 31-87 32 87Z"/><path stroke="#486d61" stroke-width="7" d="M3202 736.316v-91"/><path fill="#456e64" d="m3171 707.316 31-87 32 87Z"/><path stroke="#486d61" stroke-width="7" d="M3310 728.884v-91"/><path fill="#6f9983" d="m3279 699.884 31-87 32 87Z"/><path stroke="#486d61" stroke-width="7" d="M3418 690.582v-91"/><path fill="#456e64" d="m3387 661.582 31-87 32 87Z"/><path stroke="#486d61" stroke-width="7" d="M3526 754.501v-91"/><path fill="#6f9983" d="m3495 725.501 31-87 32 87Z"/><path stroke="#486d61" stroke-width="7" d="M3634 698.536v-91"/><path fill="#456e64" d="m3603 669.536 31-87 32 87Z"/><path stroke="#486d61" stroke-width="7" d="M3742 717.154v-91"/><path fill="#6f9983" d="m3711 688.154 31-87 32 87Z"/><path stroke="#486d61" stroke-width="7" d="M3850 745.662v-91"/><path fill="#456e64" d="m3819 716.662 31-87 32 87Z"/><path stroke="#486d61" stroke-width="7" d="M3958 685v-91"/><path fill="#6f9983" d="m3927 656 31-87 32 87Z"/><path stroke="#486d61" stroke-width="7" d="M4066 745.955v-91"/><path fill="#456e64" d="m4035 716.955 31-87 32 87Z"/><path stroke="#486d61" stroke-width="7" d="M4174 716.721v-91"/><path fill="#6f9983" d="m4143 687.721 31-87 32 87Z"/><path stroke="#486d61" stroke-width="7" d="M4282 698.88v-91"/><path fill="#456e64" d="m4251 669.88 31-87 32 87Z"/><path stroke="#486d61" stroke-width="7" d="M4390 754.426v-91"/><path fill="#6f9983" d="m4359 725.426 31-87 32 87Z"/><path stroke="#486d61" stroke-width="7" d="M4498 690.35v-91"/><path fill="#456e64" d="m4467 661.35 31-87 32 87Z"/><path stroke="#486d61" stroke-width="7" d="M4606 729.303v-91"/><path fill="#6f9983" d="m4575 700.303 31-87 32 87Z"/><path stroke="#486d61" stroke-width="7" d="M4714 735.93v-91"/><path fill="#456e64" d="m4683 706.93 31-87 32 87Z"/><g transform="translate(4822 687.202)scale(.49956)"><rect width="86" height="85" x="-43" y="-85" fill="#cbceaf" rx="4"/><path fill="#465f62" d="m-54-82 54-48 54 48Z"/><path fill="none" stroke="#e8b08b" stroke-width="5" d="m-49-87 49-43 49 43"/><rect width="24" height="36" x="-12" y="-36" fill="#475f63" rx="12"/><g fill="#ffedba"><rect width="17" height="23" x="-31" y="-65" rx="3"/><rect width="17" height="23" x="15" y="-65" rx="3"/></g><path stroke="#7d9290" stroke-width="2" d="M-30-54h15m38-11v22"/><path fill="#465f62" d="M23-122h12v33H23z"/></g><g transform="translate(4930 752.439)scale(.7106)"><rect width="86" height="85" x="-43" y="-85" fill="#e8ba99" rx="4"/><path fill="#465f62" d="m-54-82 54-48 54 48Z"/><path fill="none" stroke="#e8b08b" stroke-width="5" d="m-49-87 49-43 49 43"/><rect width="24" height="36" x="-12" y="-36" fill="#475f63" rx="12"/><g fill="#ffedba"><rect width="17" height="23" x="-31" y="-65" rx="3"/><rect width="17" height="23" x="15" y="-65" rx="3"/></g><path stroke="#7d9290" stroke-width="2" d="M-30-54h15m38-11v22"/><path fill="#465f62" d="M23-122h12v33H23z"/></g><g transform="translate(5038 704.957)scale(.57635)"><rect width="86" height="85" x="-43" y="-85" fill="#e9d7b1" rx="4"/><path fill="#465f62" d="m-54-82 54-48 54 48Z"/><path fill="none" stroke="#e8b08b" stroke-width="5" d="m-49-87 49-43 49 43"/><rect width="24" height="36" x="-12" y="-36" fill="#475f63" rx="12"/><g fill="#ffedba"><rect width="17" height="23" x="-31" y="-65" rx="3"/><rect width="17" height="23" x="15" y="-65" rx="3"/></g><path stroke="#7d9290" stroke-width="2" d="M-30-54h15m38-11v22"/><path fill="#465f62" d="M23-122h12v33H23z"/></g><g transform="translate(5146 709.746)scale(.46198)"><rect width="86" height="85" x="-43" y="-85" fill="#cbceaf" rx="4"/><path fill="#465f62" d="m-54-82 54-48 54 48Z"/><path fill="none" stroke="#e8b08b" stroke-width="5" d="m-49-87 49-43 49 43"/><rect width="24" height="36" x="-12" y="-36" fill="#475f63" rx="12"/><g fill="#ffedba"><rect width="17" height="23" x="-31" y="-65" rx="3"/><rect width="17" height="23" x="15" y="-65" rx="3"/></g><path stroke="#7d9290" stroke-width="2" d="M-30-54h15m38-11v22"/><path fill="#465f62" d="M23-122h12v33H23z"/></g><g transform="translate(5254 750.165)scale(.56305)"><rect width="86" height="85" x="-43" y="-85" fill="#e8ba99" rx="4"/><path fill="#465f62" d="m-54-82 54-48 54 48Z"/><path fill="none" stroke="#e8b08b" stroke-width="5" d="m-49-87 49-43 49 43"/><rect width="24" height="36" x="-12" y="-36" fill="#475f63" rx="12"/><g fill="#ffedba"><rect width="17" height="23" x="-31" y="-65" rx="3"/><rect width="17" height="23" x="15" y="-65" rx="3"/></g><path stroke="#7d9290" stroke-width="2" d="M-30-54h15m38-11v22"/><path fill="#465f62" d="M23-122h12v33H23z"/></g><g transform="translate(5362 685.767)scale(.63713)"><rect width="86" height="85" x="-43" y="-85" fill="#e9d7b1" rx="4"/><path fill="#465f62" d="m-54-82 54-48 54 48Z"/><path fill="none" stroke="#e8b08b" stroke-width="5" d="m-49-87 49-43 49 43"/><rect width="24" height="36" x="-12" y="-36" fill="#475f63" rx="12"/><g fill="#ffedba"><rect width="17" height="23" x="-31" y="-65" rx="3"/><rect width="17" height="23" x="15" y="-65" rx="3"/></g><path stroke="#7d9290" stroke-width="2" d="M-30-54h15m38-11v22"/><path fill="#465f62" d="M23-122h12v33H23z"/></g><g transform="translate(5470 740.321)scale(.50745)"><rect width="86" height="85" x="-43" y="-85" fill="#cbceaf" rx="4"/><path fill="#465f62" d="m-54-82 54-48 54 48Z"/><path fill="none" stroke="#e8b08b" stroke-width="5" d="m-49-87 49-43 49 43"/><rect width="24" height="36" x="-12" y="-36" fill="#475f63" rx="12"/><g fill="#ffedba"><rect width="17" height="23" x="-31" y="-65" rx="3"/><rect width="17" height="23" x="15" y="-65" rx="3"/></g><path stroke="#7d9290" stroke-width="2" d="M-30-54h15m38-11v22"/><path fill="#465f62" d="M23-122h12v33H23z"/></g><g transform="translate(5578 724.263)scale(.58516)"><rect width="86" height="85" x="-43" y="-85" fill="#e8ba99" rx="4"/><path fill="#465f62" d="m-54-82 54-48 54 48Z"/><path fill="none" stroke="#e8b08b" stroke-width="5" d="m-49-87 49-43 49 43"/><rect width="24" height="36" x="-12" y="-36" fill="#475f63" rx="12"/><g fill="#ffedba"><rect width="17" height="23" x="-31" y="-65" rx="3"/><rect width="17" height="23" x="15" y="-65" rx="3"/></g><path stroke="#7d9290" stroke-width="2" d="M-30-54h15m38-11v22"/><path fill="#465f62" d="M23-122h12v33H23z"/></g><g transform="translate(5686 693.391)scale(.68328)"><rect width="86" height="85" x="-43" y="-85" fill="#e9d7b1" rx="4"/><path fill="#465f62" d="m-54-82 54-48 54 48Z"/><path fill="none" stroke="#e8b08b" stroke-width="5" d="m-49-87 49-43 49 43"/><rect width="24" height="36" x="-12" y="-36" fill="#475f63" rx="12"/><g fill="#ffedba"><rect width="17" height="23" x="-31" y="-65" rx="3"/><rect width="17" height="23" x="15" y="-65" rx="3"/></g><path stroke="#7d9290" stroke-width="2" d="M-30-54h15m38-11v22"/><path fill="#465f62" d="M23-122h12v33H23z"/></g><g transform="translate(5794 754.98)scale(.61563)"><rect width="86" height="85" x="-43" y="-85" fill="#cbceaf" rx="4"/><path fill="#465f62" d="m-54-82 54-48 54 48Z"/><path fill="none" stroke="#e8b08b" stroke-width="5" d="m-49-87 49-43 49 43"/><rect width="24" height="36" x="-12" y="-36" fill="#475f63" rx="12"/><g fill="#ffedba"><rect width="17" height="23" x="-31" y="-65" rx="3"/><rect width="17" height="23" x="15" y="-65" rx="3"/></g><path stroke="#7d9290" stroke-width="2" d="M-30-54h15m38-11v22"/><path fill="#465f62" d="M23-122h12v33H23z"/></g><g transform="translate(5902 695.022)scale(.67818)"><rect width="86" height="85" x="-43" y="-85" fill="#e8ba99" rx="4"/><path fill="#465f62" d="m-54-82 54-48 54 48Z"/><path fill="none" stroke="#e8b08b" stroke-width="5" d="m-49-87 49-43 49 43"/><rect width="24" height="36" x="-12" y="-36" fill="#475f63" rx="12"/><g fill="#ffedba"><rect width="17" height="23" x="-31" y="-65" rx="3"/><rect width="17" height="23" x="15" y="-65" rx="3"/></g><path stroke="#7d9290" stroke-width="2" d="M-30-54h15m38-11v22"/><path fill="#465f62" d="M23-122h12v33H23z"/></g><g transform="translate(6010 721.858)scale(.73129)"><rect width="86" height="85" x="-43" y="-85" fill="#e9d7b1" rx="4"/><path fill="#465f62" d="m-54-82 54-48 54 48Z"/><path fill="none" stroke="#e8b08b" stroke-width="5" d="m-49-87 49-43 49 43"/><rect width="24" height="36" x="-12" y="-36" fill="#475f63" rx="12"/><g fill="#ffedba"><rect width="17" height="23" x="-31" y="-65" rx="3"/><rect width="17" height="23" x="15" y="-65" rx="3"/></g><path stroke="#7d9290" stroke-width="2" d="M-30-54h15m38-11v22"/><path fill="#465f62" d="M23-122h12v33H23z"/></g><g transform="translate(6118 742.238)scale(.53165)"><rect width="86" height="85" x="-43" y="-85" fill="#cbceaf" rx="4"/><path fill="#465f62" d="m-54-82 54-48 54 48Z"/><path fill="none" stroke="#e8b08b" stroke-width="5" d="m-49-87 49-43 49 43"/><rect width="24" height="36" x="-12" y="-36" fill="#475f63" rx="12"/><g fill="#ffedba"><rect width="17" height="23" x="-31" y="-65" rx="3"/><rect width="17" height="23" x="15" y="-65" rx="3"/></g><path stroke="#7d9290" stroke-width="2" d="M-30-54h15m38-11v22"/><path fill="#465f62" d="M23-122h12v33H23z"/></g><g transform="translate(6226 685.346)scale(.47217)"><rect width="86" height="85" x="-43" y="-85" fill="#e8ba99" rx="4"/><path fill="#465f62" d="m-54-82 54-48 54 48Z"/><path fill="none" stroke="#e8b08b" stroke-width="5" d="m-49-87 49-43 49 43"/><rect width="24" height="36" x="-12" y="-36" fill="#475f63" rx="12"/><g fill="#ffedba"><rect width="17" height="23" x="-31" y="-65" rx="3"/><rect width="17" height="23" x="15" y="-65" rx="3"/></g><path stroke="#7d9290" stroke-width="2" d="M-30-54h15m38-11v22"/><path fill="#465f62" d="M23-122h12v33H23z"/></g><g transform="translate(6334 748.87)scale(.7353)"><rect width="86" height="85" x="-43" y="-85" fill="#e9d7b1" rx="4"/><path fill="#465f62" d="m-54-82 54-48 54 48Z"/><path fill="none" stroke="#e8b08b" stroke-width="5" d="m-49-87 49-43 49 43"/><rect width="24" height="36" x="-12" y="-36" fill="#475f63" rx="12"/><g fill="#ffedba"><rect width="17" height="23" x="-31" y="-65" rx="3"/><rect width="17" height="23" x="15" y="-65" rx="3"/></g><path stroke="#7d9290" stroke-width="2" d="M-30-54h15m38-11v22"/><path fill="#465f62" d="M23-122h12v33H23z"/></g><g transform="translate(6442 712.078)scale(.61539)"><rect width="86" height="85" x="-43" y="-85" fill="#cbceaf" rx="4"/><path fill="#465f62" d="m-54-82 54-48 54 48Z"/><path fill="none" stroke="#e8b08b" stroke-width="5" d="m-49-87 49-43 49 43"/><rect width="24" height="36" x="-12" y="-36" fill="#475f63" rx="12"/><g fill="#ffedba"><rect width="17" height="23" x="-31" y="-65" rx="3"/><rect width="17" height="23" x="15" y="-65" rx="3"/></g><path stroke="#7d9290" stroke-width="2" d="M-30-54h15m38-11v22"/><path fill="#465f62" d="M23-122h12v33H23z"/></g><g transform="translate(6550 702.814)scale(.49097)"><rect width="86" height="85" x="-43" y="-85" fill="#e8ba99" rx="4"/><path fill="#465f62" d="m-54-82 54-48 54 48Z"/><path fill="none" stroke="#e8b08b" stroke-width="5" d="m-49-87 49-43 49 43"/><rect width="24" height="36" x="-12" y="-36" fill="#475f63" rx="12"/><g fill="#ffedba"><rect width="17" height="23" x="-31" y="-65" rx="3"/><rect width="17" height="23" x="15" y="-65" rx="3"/></g><path stroke="#7d9290" stroke-width="2" d="M-30-54h15m38-11v22"/><path fill="#465f62" d="M23-122h12v33H23z"/></g><g transform="translate(6658 753.268)scale(.56232)"><rect width="86" height="85" x="-43" y="-85" fill="#e9d7b1" rx="4"/><path fill="#465f62" d="m-54-82 54-48 54 48Z"/><path fill="none" stroke="#e8b08b" stroke-width="5" d="m-49-87 49-43 49 43"/><rect width="24" height="36" x="-12" y="-36" fill="#475f63" rx="12"/><g fill="#ffedba"><rect width="17" height="23" x="-31" y="-65" rx="3"/><rect width="17" height="23" x="15" y="-65" rx="3"/></g><path stroke="#7d9290" stroke-width="2" d="M-30-54h15m38-11v22"/><path fill="#465f62" d="M23-122h12v33H23z"/></g><g transform="translate(6766 688.123)scale(.77641)"><rect width="86" height="85" x="-43" y="-85" fill="#cbceaf" rx="4"/><path fill="#465f62" d="m-54-82 54-48 54 48Z"/><path fill="none" stroke="#e8b08b" stroke-width="5" d="m-49-87 49-43 49 43"/><rect width="24" height="36" x="-12" y="-36" fill="#475f63" rx="12"/><g fill="#ffedba"><rect width="17" height="23" x="-31" y="-65" rx="3"/><rect width="17" height="23" x="15" y="-65" rx="3"/></g><path stroke="#7d9290" stroke-width="2" d="M-30-54h15m38-11v22"/><path fill="#465f62" d="M23-122h12v33H23z"/></g><g transform="translate(6874 733.744)scale(.6663)"><rect width="86" height="85" x="-43" y="-85" fill="#e8ba99" rx="4"/><path fill="#465f62" d="m-54-82 54-48 54 48Z"/><path fill="none" stroke="#e8b08b" stroke-width="5" d="m-49-87 49-43 49 43"/><rect width="24" height="36" x="-12" y="-36" fill="#475f63" rx="12"/><g fill="#ffedba"><rect width="17" height="23" x="-31" y="-65" rx="3"/><rect width="17" height="23" x="15" y="-65" rx="3"/></g><path stroke="#7d9290" stroke-width="2" d="M-30-54h15m38-11v22"/><path fill="#465f62" d="M23-122h12v33H23z"/></g><g fill="#bbac93"><path d="M2420 745v80h30v-80Zm230-7v87h30v-87Zm230 12v75h30v-75Z"/><path d="M2380 719q280-28 580 10v17q-290-26-580-5Z"/></g><path fill="none" stroke="#f4e1b8" stroke-width="5" d="M2400 715q250-32 540 9"/></svg>